<?xml version="1.0" encoding="UTF-8"?> <svg xmlns="http://www.w3.org/2000/svg" xmlns:xlink="http://www.w3.org/1999/xlink" width="389px" height="107px" viewBox="0 0 389 107" version="1.1"><title>02 Elements / logo /full</title><g id="Page-1" stroke="none" stroke-width="1" fill="none" fill-rule="evenodd"><g id="Home" transform="translate(-60.000000, -60.000000)" fill="#20303C"><g id="Group-33" transform="translate(60.000000, 60.000000)"><path d="M174.508615,69.5671418 C177.451091,66.6164173 178.921565,62.6826186 178.921565,57.7649948 C178.921565,52.8473709 177.465605,48.9421107 174.55292,46.0492141 C171.639472,43.1563174 168.182903,41.7106201 164.180921,41.7106201 C160.179704,41.7106201 156.72237,43.127779 153.809686,45.9628477 C150.897001,48.7971655 149.440277,52.6731362 149.440277,57.5915111 C149.440277,62.509135 150.897001,66.4572029 153.809686,69.4364658 C156.72237,72.4164798 160.179704,73.9057358 164.180921,73.9057358 C168.182903,73.9057358 171.625722,72.4600385 174.508615,69.5671418 L174.508615,69.5671418 Z M162.062674,82.4973083 C155.589532,82.4973083 150.146104,80.1684214 145.733154,75.5113985 C141.31944,70.8543757 139.112583,64.8950988 139.112583,57.6343188 C139.112583,50.3735388 141.304926,44.4728408 145.688849,39.9314737 C150.072772,35.3901067 155.530713,33.1190476 162.062674,33.1190476 C165.887435,33.1190476 169.256158,33.9721968 172.168842,35.6784951 C175.082291,37.3855444 177.332689,39.627314 178.921565,42.4045549 L178.921565,33.9000997 L189.072039,33.9000997 L189.072039,81.7162562 L178.921565,81.7162562 L178.921565,72.7777164 C177.27387,75.7284409 175.008194,78.0858662 172.125301,79.8499925 C169.241644,81.6148697 165.887435,82.4973083 162.062674,82.4973083 L162.062674,82.4973083 Z M237.531993,69.4800245 C240.473705,66.4714721 241.944943,62.509135 241.944943,57.5915111 C241.944943,52.6731362 240.488983,48.7971655 237.576298,45.9628477 C234.662849,43.127779 231.191002,41.7106201 227.160757,41.7106201 C223.128985,41.7106201 219.657138,43.1563174 216.744453,46.0492141 C213.832532,48.9421107 212.375044,52.8473709 212.375044,57.7649948 C212.375044,62.6826186 213.832532,66.6021481 216.744453,69.5235832 C219.657138,72.4450182 223.115235,73.9057358 227.116452,73.9057358 C231.11767,73.9057358 234.589517,72.430749 237.531993,69.4800245 L237.531993,69.4800245 Z M229.323309,33.1190476 C235.85527,33.1190476 241.298698,35.3901067 245.65283,39.9314737 C250.006961,44.4728408 252.18479,50.3735388 252.18479,57.6343188 C252.18479,64.8950988 249.992447,70.8543757 245.608524,75.5113985 C241.224602,80.1684214 235.795687,82.4973083 229.323309,82.4973083 C225.497785,82.4973083 222.143576,81.6148697 219.260683,79.8499925 C216.377025,78.0858662 214.082322,75.7284409 212.375044,72.7777164 L212.375044,104.452381 L202.312417,104.452381 L202.312417,33.9000997 L212.375044,33.9000997 L212.375044,42.4045549 C214.023503,39.627314 216.303693,37.3855444 219.216377,35.6784951 C222.129062,33.9721968 225.497785,33.1190476 229.323309,33.1190476 L229.323309,33.1190476 Z M262.158807,81.7162562 L272.221433,81.7162562 L272.221433,33.9000997 L262.158807,33.9000997 L262.158807,81.7162562 Z M285.461812,81.7162562 L295.524439,81.7162562 L295.524439,33.9000997 L285.461812,33.9000997 L285.461812,81.7162562 Z M318.827444,33.9000997 L318.827444,42.2310712 C321.945613,36.1561385 326.800088,33.1190476 333.390868,33.1190476 L333.390868,43.3590906 L330.831861,43.3590906 C326.888698,43.3590906 323.901917,44.3429157 321.872281,46.3098151 C319.84188,48.2767144 318.827444,51.6900621 318.827444,56.549858 L318.827444,81.7162562 L308.764054,81.7162562 L308.764054,33.9000997 L318.827444,33.9000997 Z M374.259356,69.8277429 C377.201832,66.9348462 378.672306,62.9139302 378.672306,57.7649948 C378.672306,52.6160594 377.245373,48.6094126 374.391507,45.7458054 C371.537642,42.8814472 368.080309,41.4500191 364.020272,41.4500191 C359.959472,41.4500191 356.547208,42.8814472 353.781188,45.7458054 C351.015169,48.6094126 349.632542,52.6303286 349.632542,57.8085535 C349.632542,62.9860273 350.985378,67.0069433 353.692578,69.8705505 C356.399014,72.7349087 359.768501,74.1663368 363.79951,74.1663368 C367.830519,74.1663368 371.31688,72.7198885 374.259356,69.8277429 L374.259356,69.8277429 Z M363.755205,82.4973083 C356.693873,82.4973083 350.868504,80.2262493 346.278333,75.6848822 C341.688162,71.1435152 339.393458,65.1842382 339.393458,57.8085535 C339.393458,50.4321177 341.761494,44.4728408 346.498331,39.9314737 C351.235931,35.3901067 357.135397,33.1190476 364.196729,33.1190476 C371.258061,33.1190476 377.157527,35.3901067 381.894363,39.9314737 C386.6312,44.4728408 389,50.4170974 389,57.7649948 C389,65.1121411 386.572381,71.071418 381.717906,75.6413235 C376.862668,80.21198 370.875355,82.4973083 363.755205,82.4973083 L363.755205,82.4973083 Z" id="Fill-20"></path><g id="Group-2"><polygon id="Fill-18" points="0.302072438 53.3179053 54.2155707 106.636424 24.5391622 53.3179053 54.2171206 0.00015327139"></polygon><polygon id="Fill-19" points="54.2172756 0 83.894459 53.317752 54.2172756 106.63627 54.2180505 106.63627 108.133099 53.317752"></polygon></g></g></g></g></svg> 